IKResults
version=1
nRows=14
nColumns=40
inDegrees=yes

Units are S.I. units (second, meters, Newtons, ...)
Angles are in degrees.

endheader
time	pelvis_tilt	pelvis_list	pelvis_rotation	pelvis_tx	pelvis_ty	pelvis_tz	hip_flexion_r	hip_adduction_r	hip_rotation_r	knee_angle_r	knee_angle_r_beta	ankle_angle_r	subtalar_angle_r	mtp_angle_r	hip_flexion_l	hip_adduction_l	hip_rotation_l	knee_angle_l	knee_angle_l_beta	ankle_angle_l	subtalar_angle_l	mtp_angle_l	lumbar_extension	lumbar_bending	lumbar_rotation	arm_flex_r	arm_add_r	arm_rot_r	elbow_flex_r	pro_sup_r	wrist_flex_r	wrist_dev_r	arm_flex_l	arm_add_l	arm_rot_l	elbow_flex_l	pro_sup_l	wrist_flex_l	wrist_dev_l
      1.47000000	     17.81932058	     -1.67731003	      0.09468909	      0.12176441	      0.95410034	     -0.97200282	    -19.82643711	      4.29918201	    -14.19060237	    -10.46634715	     -0.18267222	      8.09525014	      4.34943958	     -4.28738100	     -8.39555283	      3.48756063	      6.82565316	    -34.18434919	     -0.59662945	     14.41002524	     17.78343762	      8.76602806	    -25.09325445	      0.94707212	      0.67991475	      3.84080974	    -11.54219665	      4.59736143	     27.21470983	     89.95437384	      0.00000000	      0.00000000	      4.07705107	      8.40877333	      9.91700502	     20.03328189	     89.95437384	      0.00000000	      0.00000000
      1.48000000	     17.86075066	     -1.43023236	     -0.13969317	      0.12710545	      0.95407289	     -0.97120916	    -20.28703203	      4.03643227	    -13.88234718	    -10.35285820	     -0.18069146	      8.26662180	      4.27806857	     -4.01753248	     -7.93410364	      3.25988811	      7.48091358	    -32.80026077	     -0.57247255	     14.16720086	     17.43490745	      8.09393083	    -25.21070495	      0.54937606	      0.91162231	      4.07580050	    -11.56253233	      4.54832609	     27.37079585	     89.95437384	      0.00000000	      0.00000000	      3.72357443	      8.42500076	     10.32041058	     19.63573304	     89.95437384	      0.00000000	      0.00000000
      1.49000000	     17.76808066	     -1.18327818	     -0.21960625	      0.13240303	      0.95379134	     -0.97068519	    -20.48180561	      3.76916062	    -13.87945936	    -10.49598530	     -0.18318950	      8.60631368	      4.33928121	     -3.88263521	     -7.25916735	      3.02846015	      7.90535502	    -31.49234348	     -0.54964508	     13.84964357	     17.02581474	      7.33108788	    -25.18934279	      0.21127903	      1.00688858	      4.32368307	    -11.53979519	      4.42822295	     27.44217123	     89.95437384	      0.00000000	      0.00000000	      3.34579122	      8.48557892	     10.50642168	     19.32320284	     89.95437384	      0.00000000	      0.00000000
      1.50000000	     17.59967075	     -1.06147843	     -0.26642401	      0.13762460	      0.95332244	     -0.97011193	    -20.59356823	      3.64781760	    -13.85600664	    -10.60404946	     -0.18507558	      8.91113424	      4.70450780	     -3.83034886	     -6.41795427	      3.00280064	      8.47017550	    -30.34498059	     -0.52961982	     13.54696850	     16.27145677	      6.73688407	    -25.08179185	      0.01354751	      1.16383812	      4.51159724	    -11.52516003	      4.18552009	     27.59328267	     89.95437384	      0.00000000	      0.00000000	      2.99327990	      8.52448650	     10.61545444	     18.99071686	     89.95437384	      0.00000000	      0.00000000
      1.51000000	     17.67446103	     -0.61126762	     -0.45670980	      0.14312205	      0.95328451	     -0.96978136	    -20.93133589	      3.10961673	    -13.81872960	    -10.84662916	     -0.18930939	      9.26729188	      4.36690055	     -3.89058971	     -6.09262491	      2.46556477	      8.92013908	    -28.74874194	     -0.50176020	     12.79631805	     15.50684378	      6.34332824	    -25.20699579	     -0.55821176	      1.23635608	      4.79954437	    -11.50079827	      4.05908908	     27.56370984	     89.95437384	      0.00000000	      0.00000000	      2.61481005	      8.54252968	     10.90722905	     18.64021244	     89.95437384	      0.00000000	      0.00000000
      1.52000000	     17.31459451	     -0.55831921	     -0.33715436	      0.14818211	      0.95238799	     -0.96958093	    -20.73497133	      3.11366105	    -13.91992124	    -11.12742427	     -0.19421019	      9.49187722	      4.12838132	     -3.85679180	     -4.88876109	      2.51434771	      9.29934996	    -27.92597516	     -0.48740021	     12.39657037	     14.79885429	      6.16807925	    -24.93318843	     -0.60709135	      1.22701191	      4.96084644	    -11.55026785	      3.99090278	     27.80350493	     89.95437384	      0.00000000	      0.00000000	      2.15556027	      8.58577061	     10.87764553	     18.55691816	     89.95437384	      0.00000000	      0.00000000
      1.53000000	     17.62067711	     -0.00169993	     -0.70665885	      0.15411855	      0.95271492	     -0.96902044	    -21.45646051	      2.43421151	    -13.61061846	    -11.15703000	     -0.19472691	      9.88664023	      4.05316248	     -3.93443540	     -5.08693154	      1.89892722	     10.12523525	    -25.89278447	     -0.45191434	     10.88523943	     12.88017641	      5.51716550	    -25.25323972	     -1.37999416	      1.46493906	      5.16113244	    -11.42694030	      3.56598654	     27.81450317	     89.95437384	      0.00000000	      0.00000000	      1.83316102	      8.59048645	     11.36207989	     18.22673661	     89.95437384	      0.00000000	      0.00000000
      1.54000000	     17.26214638	      0.00748274	     -0.60026725	      0.15935711	      0.95174720	     -0.96874227	    -21.27012256	      2.48247349	    -13.76058642	    -11.46005511	     -0.20001569	     10.05016795	      3.80550270	     -3.88507434	     -3.86634402	      1.99050764	     10.50714450	    -25.21355360	     -0.44005953	     10.53074173	     12.29168145	      5.36025843	    -24.96284517	     -1.41243039	      1.45601549	      5.29403204	    -11.45814371	      3.53617517	     28.09124860	     89.95437384	      0.00000000	      0.00000000	      1.35106647	      8.65370754	     11.29730811	     18.17702710	     89.95437384	      0.00000000	      0.00000000
      1.55000000	     17.09633738	      0.37782493	     -0.71032757	      0.16493485	      0.95137283	     -0.96858188	    -21.41289890	      2.08651460	    -13.46507547	    -11.60087070	     -0.20247339	     10.47216703	      3.67640476	     -3.91473956	     -3.45688751	      1.52722247	     10.69803949	    -23.29691605	     -0.40660789	      8.73823508	     10.18389646	      4.94438985	    -24.83237875	     -1.87793627	      1.57221815	      5.44544301	    -11.44113812	      3.39443768	     28.14196380	     89.95437384	      0.00000000	      0.00000000	      1.00752039	      8.65513656	     11.34241451	     17.88063570	     89.95437384	      0.00000000	      0.00000000
      1.56000000	     17.66267597	      0.66726089	     -1.18608816	      0.17148937	      0.95180514	     -0.96790915	    -22.57820210	      1.67181672	    -12.96410473	    -11.34138323	     -0.19794448	     10.44504829	      3.30798175	     -4.23030434	     -3.80886642	      1.52714997	     13.25029318	    -21.74404899	     -0.37950525	      6.72485793	      7.59903464	     -4.75390636	    -25.35905344	     -2.39516486	      1.96517686	      5.45544860	    -11.47695942	      3.20859867	     28.48831881	     89.95437384	      0.00000000	      0.00000000	      0.54581380	      8.61500567	     11.81723719	     17.81311544	     89.95437384	      0.00000000	      0.00000000
      1.57000000	     17.43147746	      0.70288713	     -1.02037802	      0.17676765	      0.95098837	     -0.96791445	    -22.60732425	      1.72380839	    -13.08628737	    -11.49363074	     -0.20060170	     10.60778875	      3.16768646	     -4.20647840	     -2.80266946	      1.53088948	     13.53543131	    -21.07400720	     -0.36781081	      6.53607684	      7.29681156	     -4.70202559	    -25.22176751	     -2.41926050	      1.87723274	      5.60792280	    -11.49147795	      3.17121731	     28.74866320	     89.95437384	      0.00000000	      0.00000000	      0.18689897	      8.64482108	     11.80849849	     17.73275176	     89.95437384	      0.00000000	      0.00000000
      1.58000000	     17.64110956	      1.17838653	     -1.40764940	      0.18333003	      0.95082141	     -0.96769030	    -23.15956256	      1.04428972	    -12.99827874	    -11.72755884	     -0.20468451	     11.08613826	      3.31975981	     -4.27085751	     -2.90198097	      1.16076604	     15.42815787	    -19.42806523	     -0.33908371	      4.83812862	      2.92494284	     -5.62942355	    -25.35270505	     -3.07440604	      2.16147011	      5.57583227	    -11.53974561	      3.09564644	     28.98724182	     89.95437384	      0.00000000	      0.00000000	     -0.35298998	      8.62638777	     11.85748641	     17.70012669	     89.95437384	      0.00000000	      0.00000000
      1.59000000	     17.44058954	      1.23004675	     -1.21343593	      0.18878746	      0.94994663	     -0.96788119	    -23.24300220	      1.08332610	    -13.09313541	    -11.87264709	     -0.20721678	     11.24438204	      3.17854695	     -4.25215490	     -1.99827252	      1.12254762	     15.73751048	    -18.82425582	     -0.32854524	      4.88898625	      2.69484529	     -5.59916201	    -25.23740476	     -3.09537320	      2.02914513	      5.69777980	    -11.56133181	      3.08000428	     29.23481050	     89.95437384	      0.00000000	      0.00000000	     -0.70611530	      8.63448070	     11.81758887	     17.58493269	     89.95437384	      0.00000000	      0.00000000
      1.60000000	     17.63891372	      1.84963000	     -1.60500218	      0.19526099	      0.94971377	     -0.96798886	    -23.73485941	      0.23345698	    -12.88554265	    -12.20139528	     -0.21295452	     11.75113252	      2.96097799	     -4.29871578	     -2.23421802	      0.35689525	     16.86651605	    -16.99897240	     -0.29668804	      3.97864213	     -0.28803538	     -6.08246139	    -25.39023542	     -3.88120777	      2.25493959	      5.64249113	    -11.65930267	      3.16303471	     29.51899995	     89.95437384	      0.00000000	      0.00000000	     -1.13802570	      8.59652631	     12.01428170	     17.55844860	     89.95437384	      0.00000000	      0.00000000
